# xmcd CD database file
#
# Track frame offsets:
#	150
#	29688
#	46163
#	69440
#	87697
#	104912
#	113308
#	137308
#	154031
#
# Disc length: 2237 seconds
#
# Revision: 0
# Processed by: cddbd v1.5.2PL0 Copyright (c) Steve Scherf et al.
# Submitted via: CDex 1.51
#
DISCID=7208bb09
DTITLE=Paul Bley - Tears
DYEAR=1983
DGENRE=Jazz
TTITLE0=Tears
TTITLE1=Ostinato
TTITLE2=Music Matador
TTITLE3=Walkman
TTITLE4=Flame
TTITLE5=Hardly
TTITLE6=Head over Heals
TTITLE7=Solo Rose
TTITLE8=For Roy E.
EXTD=YEAR: 1983
EXTT0=
EXTT1=
EXTT2=
EXTT3=
EXTT4=
EXTT5=
EXTT6=
EXTT7=
EXTT8=
PLAYORDER=
